<svg version="1.1" xmlns="http://www.w3.org/2000/svg" viewBox="17.185 17.19 65.63 65.63">  <g fill="#f4f4f4">   <path d="m81.25 23.438c0-1.7266-1.3984-3.125-3.125-3.125h-7.8125v-1.5625c0-0.86328-0.69922-1.5625-1.5625-1.5625s-1.5625 0.69922-1.5625 1.5625v1.5625h-9.375v-1.5625c0-0.86328-0.69922-1.5625-1.5625-1.5625s-1.5625 0.69922-1.5625 1.5625v1.5625h-9.375v-1.5625c0-0.86328-0.69922-1.5625-1.5625-1.5625s-1.5625 0.69922-1.5625 1.5625v1.5625h-9.375v-1.5625c0-0.86328-0.69922-1.5625-1.5625-1.5625s-1.5625 0.69922-1.5625 1.5625v1.5625h-7.8125c-1.7266 0-3.125 1.3984-3.125 3.125v56.25c0 1.7266 1.3984 3.125 3.125 3.125h56.25c1.7266 0 3.125-1.3984 3.125-3.125zm-48.438 1.5625v-1.5625h9.375v1.5625h3.125v-1.5625h9.375v1.5625h3.125v-1.5625h9.375v1.5625h3.125v-1.5625h7.8125v12.5h-56.25v-12.5h7.8125v1.5625zm-10.938 54.688v-40.625h56.25v40.625z"></path>   <path d="m31.25 26.562c0.86328 0 1.5625-0.69922 1.5625-1.5625h-3.125c0 0.86328 0.69922 1.5625 1.5625 1.5625z"></path>   <path d="m56.246 26.562c0.86328 0 1.5625-0.69922 1.5625-1.5625h-3.125c0 0.86328 0.69922 1.5625 1.5625 1.5625z"></path>   <path d="m68.75 26.562c0.86328 0 1.5625-0.69922 1.5625-1.5625h-3.125c0 0.86328 0.69922 1.5625 1.5625 1.5625z"></path>   <path d="m43.75 26.562c0.86328 0 1.5625-0.69922 1.5625-1.5625h-3.125c0 0.86328 0.69922 1.5625 1.5625 1.5625z"></path>  </g> </svg>