<svg version="1.1" xmlns="http://www.w3.org/2000/svg" viewBox="12.5 12.505 75 75">  <g fill="#f4f4f4">   <path d="m87 46.516-35.938-29.688c-0.27734-0.26172-0.65234-0.42188-1.0625-0.42188-0.42969 0-0.82031 0.17578-1.1055 0.45703l-0.035156-0.035156-35.938 29.688 0.035156 0.035156c-0.28125 0.28125-0.45703 0.67188-0.45703 1.1055 0 0.86328 0.69922 1.5625 1.5625 1.5625 0.42969 0 0.82031-0.17578 1.1055-0.45703l0.027343 0.027343 34.766-28.719 34.766 28.719 0.070313-0.070312c0.28516 0.30469 0.6875 0.5 1.1406 0.5 0.86328 0 1.5625-0.69922 1.5625-1.5625 0-0.44922-0.19531-0.85547-0.5-1.1406z"></path>   <path d="m73.438 46.094c-0.86328 0-1.5625 0.69922-1.5625 1.5625v32.812h-14.062v-12.5c0-0.86328-0.69922-1.5625-1.5625-1.5625h-0.007812-12.488-0.007812c-0.86328 0-1.5625 0.69922-1.5625 1.5625v12.5h-14.059v-32.812c0-0.86328-0.69922-1.5625-1.5625-1.5625s-1.5625 0.69922-1.5625 1.5625v34.375c0 0.86328 0.69922 1.5625 1.5625 1.5625h17.188c0.86328 0 1.5625-0.69922 1.5625-1.5625v-12.5h9.375v12.5c0 0.86328 0.69922 1.5625 1.5625 1.5625h17.188c0.86328 0 1.5625-0.69922 1.5625-1.5625v-34.375c0-0.86328-0.69922-1.5625-1.5625-1.5625z"></path>  </g> </svg>