<?xml version="1.0" encoding="UTF-8"?>
<svg width="100pt" height="100pt" version="1.1" viewBox="21 21 59 59" xmlns="http://www.w3.org/2000/svg">
 <path d="m44.633 24.391c-0.57812 0.003906-1.0469 0.46875-1.0469 1.0469 0 1.7266 0.70312 3.3516 1.8945 4.5391-1.543 1.2344-2.5352 3.1289-2.5352 5.2539 0 0.0625 0.007813 0.12109 0.007813 0.18359-2.3477 0.96875-4.0234 3.2344-4.1445 5.8984l-2.1406 0.003906c-0.57812 0-1.0469 0.46484-1.0469 1.043v3.1094c-1.9922-0.35547-3.5586-1.0195-4.7188-2.0781-1.8594-1.6953-2.8945-4.5234-2.8945-9.2773 0-0.26172-0.10547-0.50781-0.28906-0.69141s-0.43359-0.28516-0.69141-0.28516c-0.53906 0-0.97656 0.4375-0.97656 0.97656 0 5.0469 1.1367 8.5469 3.5352 10.73 1.5781 1.4375 3.6133 2.2422 6.0391 2.625v5.5039l-12.289-0.003906c-0.53906 0-0.98047 0.4375-0.98047 0.97656 0 0.26172 0.10156 0.51172 0.28516 0.69531s0.43359 0.28516 0.69531 0.28516h12.285v5.6094c0 0.24609 0.007812 0.49219 0.019531 0.73828-2.4297 0.37891-4.4766 1.1836-6.0586 2.6289-2.3945 2.1836-3.5352 5.6797-3.5352 10.727h0.003906c0 0.53906 0.4375 0.97656 0.97656 0.98047 0.26172 0 0.51172-0.10156 0.69531-0.28906 0.18359-0.18359 0.28516-0.43359 0.28516-0.69141 0-4.7578 1.0391-7.5859 2.8945-9.2773 1.2109-1.1016 2.8594-1.7852 4.9727-2.125 1.2578 6.6602 7.0977 11.695 14.125 11.695 7.0234 0 12.859-5.0273 14.121-11.68 2.1094 0.33984 3.7656 1.0117 4.9688 2.1133 1.8594 1.6953 2.8984 4.5234 2.8984 9.2773l0.007813-0.003906c-0.003906 0.53906 0.43359 0.97656 0.97656 0.98047 0.25781 0 0.50781-0.10156 0.69141-0.28906 0.1875-0.18359 0.28906-0.43359 0.28906-0.69141 0-5.0469-1.1445-8.543-3.5391-10.727-1.5781-1.4414-3.6289-2.2344-6.0547-2.6133 0.011719-0.25 0.019531-0.5 0.019531-0.75391v-5.6094h12.289c0.53906 0 0.97656-0.44141 0.97656-0.98047 0-0.53906-0.4375-0.97656-0.97656-0.97656h-12.285v-5.5195c2.418-0.37891 4.457-1.1719 6.0312-2.6055 2.3945-2.1836 3.5391-5.6836 3.5391-10.73 0-0.26172-0.10547-0.50781-0.28906-0.69141-0.18359-0.18359-0.43359-0.28516-0.69141-0.28516-0.53906 0-0.97656 0.4375-0.97656 0.97656 0 4.7578-1.043 7.5859-2.8984 9.2773-1.1562 1.0547-2.7266 1.7148-4.7148 2.0703v-3.1016c-0.003906-0.57812-0.47266-1.043-1.0469-1.043h-2.1445c-0.12109-2.6641-1.7969-4.9297-4.1445-5.8984 0-0.0625 0.007813-0.12109 0.007813-0.18359 0-2.1289-0.99609-4.0273-2.5391-5.2617 1.1953-1.1875 1.9023-2.8047 1.9023-4.5352 0-0.57812-0.46875-1.043-1.0469-1.0469-0.27734 0-0.54688 0.10938-0.74219 0.30859-0.19922 0.19531-0.30859 0.46094-0.30859 0.73828 0 1.375-0.65234 2.6523-1.7383 3.4609-0.70703-0.25391-1.4688-0.39844-2.2617-0.39844h-0.64062c-0.79297 0-1.5547 0.14453-2.2617 0.39844-1.0859-0.80859-1.7422-2.0859-1.7422-3.4609h0.003907c0-0.27734-0.10938-0.54297-0.30859-0.73828-0.19531-0.19531-0.46094-0.30859-0.73828-0.30859zm5.0469 5.8828h0.64062c2.668 0 4.7891 2.0547 4.9336 4.6797-0.25-0.027344-0.5-0.046875-0.75781-0.046875h-8.9961c-0.25781 0-0.50781 0.015625-0.75781 0.046875 0.14453-2.6289 2.2656-4.6797 4.9336-4.6797zm-4.1758 6.7305h8.9961c2.4648 0 4.3906 1.8906 4.5547 4.3086h-18.105c0.16016-2.4219 2.0859-4.3086 4.5547-4.3086zm-7.7891 6.4023h2.1406-0.003907 0.042969 9.0586v29.371c-6.3281-0.52344-11.242-5.7695-11.242-12.238zm22.426 0h2.1445v17.133c0 6.4727-4.9102 11.715-11.234 12.238v-29.371h9.0547 0.03125z" fill="#f4f4f4" fill-rule="evenodd"/>
</svg>
