<?xml version="1.0" encoding="UTF-8"?>
<svg width="100pt" height="100pt" version="1.1" viewBox="10 10 80 80" xmlns="http://www.w3.org/2000/svg">
 <g fill="#f4f4f4">
  <path d="m35.957 29.688c-3.5156 0-6.3633 2.8477-6.3633 6.3594s2.8477 6.3633 6.3633 6.3633c3.5117 0 6.3594-2.8477 6.3594-6.3633 0-3.5078-2.8477-6.3594-6.3594-6.3594zm0 9.375c-1.7266 0-3.125-1.3984-3.125-3.125s1.3984-3.125 3.125-3.125c1.7266 0 3.125 1.3984 3.125 3.125 0 1.7227-1.4023 3.125-3.125 3.125z"/>
  <path d="m81.23 54.711c0-0.42969-0.17578-0.82031-0.45703-1.1055l0.050781-0.050781-34.398-34.395-0.003906 0.003906c-0.27734-0.25781-0.64453-0.41406-1.0547-0.41406h-25.035c-0.86328 0-1.5625 0.69922-1.5625 1.5625v25.008c0.003907 0.54297 0.28125 1.0156 0.70312 1.2969l33.934 33.93c0.28125 0.42188 0.75781 0.70312 1.3047 0.70312 0.55078 0 1.0312-0.28516 1.3086-0.71484l24.527-24.527c0.41016-0.28125 0.68359-0.75781 0.68359-1.2969zm-26.527 22.719-32.809-32.809v-22.746h22.828l32.77 32.766z"/>
 </g>
</svg>
