<svg version="1.1" xmlns="http://www.w3.org/2000/svg" viewBox="20.31 20.31 59.37 59.37">  <path d="m64.062 34.375c-0.10938 0-0.21484 0.007812-0.32422 0.007812-0.16016 0.003907-0.32031 0.003907-0.48047 0.011719-0.52344 0.027344-1.043 0.078125-1.5508 0.15625-0.007812 0-0.015625 0.003907-0.023437 0.003907-0.64453 0.097656-1.2773 0.23437-1.8945 0.41016-4.3125 1.2227-7.8633 4.2461-9.7891 8.2148-1 2.0586-1.5625 4.3711-1.5625 6.8203v0.003906 0.003906c-0.003906 6.9062-5.5938 12.496-12.5 12.496-6.9102 0-12.5-5.5898-12.5-12.5s5.5898-12.5 12.5-12.5c4.4688 0 8.375 2.3477 10.586 5.8672 0.42187-1.1211 0.94922-2.1875 1.5664-3.1914-2.8633-3.5391-7.2383-5.8008-12.152-5.8008-8.6367-0.003906-15.625 6.9844-15.625 15.621s6.9883 15.625 15.625 15.625c6.1875 0 11.531-3.5898 14.062-8.8008 1-2.0625 1.5625-4.375 1.5625-6.8203 0-6.9102 5.5898-12.5 12.5-12.5s12.5 5.5898 12.5 12.5-5.5898 12.5-12.5 12.5c-4.4688 0-8.375-2.3477-10.586-5.8672-0.42187 1.1211-0.94922 2.1875-1.5664 3.1914 2.8633 3.5391 7.2383 5.8008 12.152 5.8008 8.6367 0 15.625-6.9883 15.625-15.625 0-8.6406-6.9883-15.629-15.625-15.629z" fill="#f4f4f4"></path> </svg>