<?xml version="1.0" encoding="iso-8859-1"?>
<svg version="1.1" id="Capa_1" xmlns="http://www.w3.org/2000/svg" xmlns:xlink="http://www.w3.org/1999/xlink" x="0px" y="0px"
	 viewBox="0 0 50.778 50.778" style="enable-background:new 0 0 50.778 50.778;" xml:space="preserve">
<g>
	<path fill="white" d="M45.791,40.682l-8.389-8.389c-0.391-0.391-1.023-0.391-1.414,0c-0.391,0.391-0.391,1.023,0,1.414l6.682,6.682H13.695
		c-3.859,0-7-3.14-7-7s3.141-7,7-7h24V26.33c4.493-0.5,8-4.317,8-8.941s-3.507-8.441-8-8.941V8.389H8.22l6.682-6.682
		c0.391-0.391,0.391-1.023,0-1.414s-1.023-0.391-1.414,0L5.099,8.682c-0.391,0.391-0.391,1.023,0,1.414l8.389,8.389
		c0.195,0.195,0.451,0.293,0.707,0.293s0.512-0.098,0.707-0.293c0.391-0.391,0.391-1.023,0-1.414L8.22,10.389h28.475
		c3.859,0,7,3.14,7,7s-3.141,7-7,7h-24v0.059c-4.494,0.5-8,4.317-8,8.941s3.507,8.441,8,8.941v0.059H42.67l-6.682,6.682
		c-0.391,0.391-0.391,1.023,0,1.414c0.195,0.195,0.451,0.293,0.707,0.293s0.512-0.098,0.707-0.293l8.389-8.389
		C46.181,41.706,46.181,41.073,45.791,40.682z"/>
</g>
</svg>
