<?xml version="1.0" encoding="utf-8"?>
<svg viewBox="-0.5 -0.5 22 21" xmlns="http://www.w3.org/2000/svg">
  <g stroke="none" fill="#f4f4f4" fill-rule="evenodd">
    <path d="M 3.4 8.949 C 1.52 7.159 1.755 4.107 4.102 2.631 C 5.81 1.558 8.104 1.88 9.551 3.258 L 10.222 3.897 C 10.641 4.296 11.32 4.296 11.738 3.897 C 12.157 3.499 12.157 2.853 11.738 2.454 L 11.171 1.914 C 8.681 -0.457 4.59 -0.698 2.026 1.6 C -0.627 3.979 -0.674 7.957 1.884 10.392 L 2.642 11.113 C 3.06 11.512 3.74 11.512 4.158 11.113 C 4.577 10.715 4.577 10.069 4.158 9.67 L 3.4 8.949 Z"/>
    <path d="M 14.64 15.32 L 4.916 6.062 C 4.498 5.663 4.498 5.017 4.916 4.618 C 5.335 4.22 6.014 4.22 6.432 4.618 L 16.156 13.876 C 16.575 14.275 16.575 14.921 16.156 15.32 C 15.737 15.718 15.059 15.718 14.64 15.32 Z"/>
    <path d="M 18.977 9.346 L 18.43 8.825 C 18.011 8.426 17.332 8.426 16.914 8.825 C 16.495 9.223 16.495 9.869 16.914 10.268 L 17.585 10.907 C 19.033 12.285 19.37 14.469 18.244 16.095 C 16.694 18.33 13.487 18.552 11.608 16.763 L 10.85 16.042 C 10.431 15.643 9.753 15.643 9.335 16.042 C 8.915 16.44 8.915 17.086 9.335 17.485 L 10.092 18.206 C 12.644 20.635 16.806 20.598 19.306 18.091 C 21.743 15.649 21.479 11.728 18.977 9.346 Z"/>
  </g>
</svg>