<svg viewBox="0 0 9 14" xmlns="http://www.w3.org/2000/svg">
  <path d="M 7.716 6.294 L 2.716 1.294 C 2.622 1.2 2.512 1.126 2.39 1.076 C 2.268 1.025 2.137 1 2.006 1 C 1.739 1 1.484 1.105 1.296 1.294 C 1.202 1.387 1.128 1.498 1.078 1.619 C 1.028 1.741 1.002 1.872 1.002 2.004 C 1.002 2.27 1.107 2.525 1.296 2.714 L 5.596 7.004 L 1.296 11.294 C 1.202 11.387 1.128 11.497 1.077 11.619 C 1.026 11.741 1 11.872 1 12.004 C 1 12.136 1.026 12.266 1.077 12.388 C 1.128 12.51 1.202 12.621 1.296 12.714 C 1.389 12.807 1.499 12.882 1.621 12.933 C 1.743 12.983 1.874 13.009 2.006 13.009 C 2.138 13.009 2.268 12.983 2.39 12.933 C 2.512 12.882 2.623 12.807 2.716 12.714 L 7.716 7.714 C 7.809 7.621 7.884 7.51 7.935 7.388 C 7.985 7.266 8.011 7.136 8.011 7.004 C 8.011 6.872 7.985 6.741 7.935 6.619 C 7.884 6.497 7.809 6.387 7.716 6.294 Z" fill="#EAEAEB"></path>
</svg>