<svg width="52" height="36" viewBox="0 0 52 36" fill="none" xmlns="http://www.w3.org/2000/svg">
<g filter="url(#filter0_d_4702_21816)">
<path d="M26 18C28.6244 18 30.75 15.8744 30.75 13.25C30.75 10.6256 28.6244 8.5 26 8.5C23.3756 8.5 21.25 10.6256 21.25 13.25C21.25 15.8744 23.3756 18 26 18ZM26 20.375C22.8294 20.375 16.5 21.9662 16.5 25.125V26.5C16.5 27.0523 16.9477 27.5 17.5 27.5H34.5C35.0523 27.5 35.5 27.0523 35.5 26.5V25.125C35.5 21.9662 29.1706 20.375 26 20.375Z" fill="white"/>
</g>
<defs>
<filter id="filter0_d_4702_21816" x="0.5" y="-7.5" width="51" height="51" filterUnits="userSpaceOnUse" color-interpolation-filters="sRGB">
<feFlood flood-opacity="0" result="BackgroundImageFix"/>
<feColorMatrix in="SourceAlpha" type="matrix" values="0 0 0 0 0 0 0 0 0 0 0 0 0 0 0 0 0 0 127 0" result="hardAlpha"/>
<feOffset/>
<feGaussianBlur stdDeviation="8"/>
<feColorMatrix type="matrix" values="0 0 0 0 1 0 0 0 0 1 0 0 0 0 1 0 0 0 0.5 0"/>
<feBlend mode="normal" in2="BackgroundImageFix" result="effect1_dropShadow_4702_21816"/>
<feBlend mode="normal" in="SourceGraphic" in2="effect1_dropShadow_4702_21816" result="shape"/>
</filter>
</defs>
</svg>
