<svg width="20" height="20" viewBox="0 0 20 20" fill="none" xmlns="http://www.w3.org/2000/svg">
<path d="M13.875 5.25C13.875 7.39113 12.1411 9.125 10 9.125C7.85887 9.125 6.125 7.39113 6.125 5.25C6.125 3.10887 7.85887 1.375 10 1.375C12.1411 1.375 13.875 3.10887 13.875 5.25ZM1.375 17.125C1.375 16.6567 1.60265 16.1817 2.13195 15.6932C2.6672 15.1992 3.45047 14.7527 4.3864 14.3777C6.25968 13.6273 8.52407 13.25 10 13.25C11.4759 13.25 13.7403 13.6273 15.6136 14.3777C16.5495 14.7527 17.3328 15.1992 17.868 15.6932C18.3974 16.1817 18.625 16.6567 18.625 17.125V18.5C18.625 18.569 18.569 18.625 18.5 18.625H1.5C1.43096 18.625 1.375 18.569 1.375 18.5V17.125Z" stroke="#C8CDD0" stroke-width="1.75"/>
</svg>
