<svg width="50" height="36" viewBox="0 0 50 36" fill="none" xmlns="http://www.w3.org/2000/svg">
<g filter="url(#filter0_d_4702_21801)">
<path d="M17.5 28C16.9477 28 16.5 27.5523 16.5 27V15.1532C16.5 14.8461 16.6412 14.5559 16.8829 14.3664L24.3829 8.48403C24.7452 8.19984 25.2548 8.19984 25.6171 8.48403L33.1171 14.3664C33.3588 14.5559 33.5 14.8461 33.5 15.1532V27C33.5 27.5523 33.0523 28 32.5 28H28.125C27.5727 28 27.125 27.5523 27.125 27V21.2222C27.125 20.6699 26.6773 20.2222 26.125 20.2222H23.875C23.3227 20.2222 22.875 20.6699 22.875 21.2222V27C22.875 27.5523 22.4273 28 21.875 28H17.5Z" fill="white"/>
</g>
<defs>
<filter id="filter0_d_4702_21801" x="0.5" y="-7.72913" width="49" height="51.7291" filterUnits="userSpaceOnUse" color-interpolation-filters="sRGB">
<feFlood flood-opacity="0" result="BackgroundImageFix"/>
<feColorMatrix in="SourceAlpha" type="matrix" values="0 0 0 0 0 0 0 0 0 0 0 0 0 0 0 0 0 0 127 0" result="hardAlpha"/>
<feOffset/>
<feGaussianBlur stdDeviation="8"/>
<feColorMatrix type="matrix" values="0 0 0 0 1 0 0 0 0 1 0 0 0 0 1 0 0 0 0.5 0"/>
<feBlend mode="normal" in2="BackgroundImageFix" result="effect1_dropShadow_4702_21801"/>
<feBlend mode="normal" in="SourceGraphic" in2="effect1_dropShadow_4702_21801" result="shape"/>
</filter>
</defs>
</svg>
