<svg width="18" height="20" viewBox="0 0 18 20" fill="none" xmlns="http://www.w3.org/2000/svg">
<path d="M1.5 19.125C1.43096 19.125 1.375 19.069 1.375 19V7.15324C1.375 7.11484 1.39265 7.07858 1.42286 7.05488L0.88286 6.36638L1.42286 7.05488L8.92286 1.17253C8.96815 1.137 9.03185 1.137 9.07714 1.17253L16.5771 7.05488C16.6074 7.07858 16.625 7.11484 16.625 7.15324V19C16.625 19.069 16.569 19.125 16.5 19.125H12.125C12.056 19.125 12 19.069 12 19V13.2222C12 12.1867 11.1605 11.3472 10.125 11.3472H7.875C6.83947 11.3472 6 12.1867 6 13.2222V19C6 19.069 5.94404 19.125 5.875 19.125H1.5Z" stroke="#C8CDD0" stroke-width="1.75"/>
</svg>
