<svg width="48" height="36" viewBox="0 0 48 36" fill="none" xmlns="http://www.w3.org/2000/svg">
<g filter="url(#filter0_d_4702_21823)">
<path d="M16 24.3C16 23.715 16.1668 23.19 16.5004 22.725C16.8341 22.26 17.2599 21.9375 17.7778 21.7575L17.7778 17.1C17.7778 16.11 18.1259 15.2625 18.8222 14.5575C19.5185 13.8525 20.3556 13.5 21.3333 13.5C22.3111 13.5 23.1481 13.8525 23.8444 14.5575C24.5407 15.2625 24.8889 16.11 24.8889 17.1L24.8889 18.9C24.8889 19.395 25.0631 19.8189 25.4116 20.1717C25.76 20.5245 26.1784 20.7006 26.6667 20.7C27.1556 20.7 27.5742 20.5236 27.9227 20.1708C28.2711 19.818 28.445 19.3944 28.4444 18.9L28.4444 14.2425C27.9259 14.0475 27.4999 13.7211 27.1662 13.2633C26.8326 12.8055 26.6661 12.2844 26.6667 11.7C26.6667 10.95 26.9259 10.3125 27.4444 9.7875C27.963 9.2625 28.5926 9 29.3333 9C30.0741 9 30.7037 9.2625 31.2222 9.7875C31.7407 10.3125 32 10.95 32 11.7C32 12.285 31.8332 12.8064 31.4996 13.2642C31.1659 13.722 30.7401 14.0478 30.2222 14.2416L30.2222 18.9C30.2222 19.89 29.8741 20.7375 29.1778 21.4425C28.4815 22.1475 27.6444 22.5 26.6667 22.5C25.6889 22.5 24.8519 22.1475 24.1556 21.4425C23.4593 20.7375 23.1111 19.89 23.1111 18.9L23.1111 17.1C23.1111 16.605 22.9369 16.1811 22.5884 15.8283C22.24 15.4755 21.8216 15.2994 21.3333 15.3C20.8444 15.3 20.4258 15.4764 20.0773 15.8292C19.7289 16.182 19.555 16.6056 19.5556 17.1L19.5556 21.7575C20.0741 21.9525 20.5001 22.2789 20.8338 22.7367C21.1674 23.1945 21.3339 23.7156 21.3333 24.3C21.3333 25.05 21.0741 25.6875 20.5556 26.2125C20.037 26.7375 19.4074 27 18.6667 27C17.9259 27 17.2963 26.7375 16.7778 26.2125C16.2593 25.6875 16 25.05 16 24.3ZM28.4444 11.7C28.4444 11.955 28.5298 12.1689 28.7004 12.3417C28.8711 12.5145 29.0821 12.6006 29.3333 12.6C29.5852 12.6 29.7964 12.5136 29.9671 12.3408C30.1378 12.168 30.2228 11.9544 30.2222 11.7C30.2222 11.445 30.1369 11.2311 29.9662 11.0583C29.7956 10.8855 29.5846 10.7994 29.3333 10.8C29.0815 10.8 28.8702 10.8864 28.6996 11.0592C28.5289 11.232 28.4439 11.4456 28.4444 11.7Z" fill="white"/>
</g>
<defs>
<filter id="filter0_d_4702_21823" x="0" y="-7" width="48" height="50" filterUnits="userSpaceOnUse" color-interpolation-filters="sRGB">
<feFlood flood-opacity="0" result="BackgroundImageFix"/>
<feColorMatrix in="SourceAlpha" type="matrix" values="0 0 0 0 0 0 0 0 0 0 0 0 0 0 0 0 0 0 127 0" result="hardAlpha"/>
<feOffset/>
<feGaussianBlur stdDeviation="8"/>
<feColorMatrix type="matrix" values="0 0 0 0 1 0 0 0 0 1 0 0 0 0 1 0 0 0 0.5 0"/>
<feBlend mode="normal" in2="BackgroundImageFix" result="effect1_dropShadow_4702_21823"/>
<feBlend mode="normal" in="SourceGraphic" in2="effect1_dropShadow_4702_21823" result="shape"/>
</filter>
</defs>
</svg>
