<svg width="16" height="18" viewBox="0 0 16 18" fill="none" xmlns="http://www.w3.org/2000/svg">
<path d="M-1.82451e-07 15.3C-1.75475e-07 14.715 0.166814 14.19 0.500443 13.725C0.686864 13.4652 0.902054 13.2498 1.14602 13.079C1.49475 12.8348 1.77778 12.4721 1.77778 12.0464L1.77778 8.1C1.77778 7.11 2.12592 6.2625 2.82222 5.5575C3.51852 4.8525 4.35556 4.5 5.33333 4.5C6.31111 4.5 7.14815 4.8525 7.84444 5.5575C8.54074 6.2625 8.88889 7.11 8.88889 8.1L8.88889 9.9C8.88889 10.395 9.06311 10.8189 9.41156 11.1717C9.76 11.5245 10.1784 11.7006 10.6667 11.7C11.1556 11.7 11.5742 11.5236 11.9227 11.1708C12.2711 10.818 12.445 10.3944 12.4444 9.9L12.4444 5.93481C12.4444 5.5183 12.1743 5.16048 11.8327 4.92218C11.58 4.74592 11.3579 4.52629 11.1662 4.2633C10.8326 3.8055 10.6661 3.2844 10.6667 2.7C10.6667 1.95 10.9259 1.3125 11.4444 0.7875C11.963 0.2625 12.5926 -4.06329e-08 13.3333 -3.17997e-08C14.0741 -2.29664e-08 14.7037 0.2625 15.2222 0.7875C15.7407 1.3125 16 1.95 16 2.7C16 3.285 15.8332 3.8064 15.4996 4.2642C15.3084 4.52654 15.0869 4.74553 14.8352 4.92117C14.4932 5.15987 14.2222 5.51802 14.2222 5.93513L14.2222 9.9C14.2222 10.89 13.8741 11.7375 13.1778 12.4425C12.4815 13.1475 11.6444 13.5 10.6667 13.5C9.68889 13.5 8.85185 13.1475 8.15556 12.4425C7.45926 11.7375 7.11111 10.89 7.11111 9.9L7.11111 8.1C7.11111 7.605 6.93689 7.1811 6.58844 6.8283C6.24 6.4755 5.82163 6.2994 5.33333 6.3C4.84444 6.3 4.42578 6.4764 4.07733 6.8292C3.72889 7.182 3.55496 7.6056 3.55555 8.1L3.55555 12.0652C3.55555 12.4817 3.82568 12.8395 4.16728 13.0778C4.41995 13.2541 4.64212 13.4737 4.83378 13.7367C5.16741 14.1945 5.33393 14.7156 5.33333 15.3C5.33333 16.05 5.07407 16.6875 4.55555 17.2125C4.03704 17.7375 3.40741 18 2.66667 18C1.92593 18 1.29629 17.7375 0.777777 17.2125C0.259258 16.6875 -1.91394e-07 16.05 -1.82451e-07 15.3ZM12.4444 2.7C12.4444 2.955 12.5298 3.1689 12.7004 3.3417C12.8711 3.5145 13.0821 3.6006 13.3333 3.6C13.5852 3.6 13.7964 3.5136 13.9671 3.3408C14.1378 3.168 14.2228 2.9544 14.2222 2.7C14.2222 2.445 14.1369 2.2311 13.9662 2.0583C13.7956 1.8855 13.5846 1.7994 13.3333 1.8C13.0815 1.8 12.8702 1.8864 12.6996 2.0592C12.5289 2.232 12.4439 2.4456 12.4444 2.7Z" fill="#C8CDD0"/>
</svg>
