<svg width="18" height="19" viewBox="0 0 18 19" fill="none" xmlns="http://www.w3.org/2000/svg">
<path d="M12.2099 8.78921L7.20994 3.78921C7.1167 3.69597 7.00601 3.62201 6.88419 3.57155C6.76237 3.52109 6.6318 3.49512 6.49994 3.49512C6.23364 3.49512 5.97824 3.60091 5.78994 3.78921C5.6967 3.88245 5.62274 3.99314 5.57228 4.11496C5.52182 4.23678 5.49585 4.36735 5.49585 4.49921C5.49585 4.76551 5.60164 5.02091 5.78994 5.20921L10.0899 9.49921L5.78994 13.7892C5.69621 13.8822 5.62182 13.9928 5.57105 14.1146C5.52028 14.2365 5.49414 14.3672 5.49414 14.4992C5.49414 14.6312 5.52028 14.7619 5.57105 14.8838C5.62182 15.0056 5.69621 15.1162 5.78994 15.2092C5.8829 15.3029 5.9935 15.3773 6.11536 15.4281C6.23722 15.4789 6.36793 15.505 6.49994 15.505C6.63195 15.505 6.76266 15.4789 6.88452 15.4281C7.00638 15.3773 7.11698 15.3029 7.20994 15.2092L12.2099 10.2092C12.3037 10.1162 12.3781 10.0056 12.4288 9.88379C12.4796 9.76193 12.5057 9.63122 12.5057 9.49921C12.5057 9.3672 12.4796 9.23649 12.4288 9.11463C12.3781 8.99277 12.3037 8.88217 12.2099 8.78921Z" fill="white"/>
</svg>
