<?xml version="1.0" standalone="no"?>
<!DOCTYPE svg PUBLIC "-//W3C//DTD SVG 20010904//EN"
 "http://www.w3.org/TR/2001/REC-SVG-20010904/DTD/svg10.dtd">
<svg version="1.0" xmlns="http://www.w3.org/2000/svg"
 width="512.000000pt" height="512.000000pt" viewBox="0 0 512.000000 512.000000"
 preserveAspectRatio="xMidYMid meet">
<metadata>
Created by potrace 1.14, written by Peter Selinger 2001-2017
</metadata>
<g transform="translate(0.000000,512.000000) scale(0.100000,-0.100000)"
fill="#000000" stroke="none">
<path d="M0 2560 l0 -2560 2560 0 2560 0 0 2560 0 2560 -2560 0 -2560 0 0
-2560z m3211 1614 c526 -90 925 -481 1036 -1014 24 -117 24 -354 -1 -470 -99
-471 -438 -848 -876 -973 l-85 -24 -46 -85 c-147 -275 -385 -488 -671 -598
-185 -72 -449 -99 -649 -66 -276 46 -514 170 -707 370 -181 187 -298 415 -343
666 -20 109 -17 346 5 450 98 470 419 829 867 971 l96 31 27 56 c111 227 338
454 574 571 89 45 254 98 353 115 116 19 306 19 420 0z"/>
<path d="M2840 3988 c-93 -13 -274 -77 -365 -129 -149 -85 -315 -243 -388
-368 l-18 -31 68 0 c37 0 111 -7 163 -15 551 -84 974 -499 1065 -1043 14 -81
16 -136 11 -255 -3 -84 -8 -169 -12 -189 -5 -29 -3 -38 7 -38 33 0 221 105
296 165 401 321 521 861 293 1320 -205 415 -655 649 -1120 583z"/>
<path d="M2015 3261 l-40 -6 -18 -75 c-27 -110 -33 -313 -14 -425 30 -169 102
-340 196 -470 60 -82 65 -117 25 -164 -20 -25 -34 -31 -64 -31 -50 0 -78 24
-144 123 -72 109 -110 188 -151 310 -54 162 -68 265 -61 452 3 88 8 175 12
193 8 43 0 42 -112 -13 -656 -319 -803 -1201 -285 -1716 135 -134 283 -224
453 -273 587 -170 1187 169 1345 759 23 89 26 119 27 265 0 139 -3 179 -22
254 -94 373 -382 675 -742 779 -136 40 -297 55 -405 38z"/>
</g>
</svg>
