<svg width="21" height="21" viewBox="0 0 21 21" fill="none" xmlns="http://www.w3.org/2000/svg">
<path d="M7.35534 7.77693C6.26597 7.77693 5.62547 8.61693 5.62547 10.0777V11.0516C5.62547 12.5059 6.25415 13.3183 7.35534 13.3183C8.26097 13.3183 8.84897 12.7474 8.91328 11.9402H10.4187V12.0898C10.3426 13.5952 9.06816 14.6334 7.34353 14.6334C5.22778 14.6334 4.03865 13.2842 4.03865 11.0516V10.0712C4.03865 7.83993 5.23828 6.46181 7.34353 6.46181C9.07472 6.46181 10.3492 7.52756 10.4187 9.08549V9.22987H8.91328C8.84897 8.3925 8.24915 7.77562 7.35534 7.77562V7.77693Z" fill="#F9F9F9"/>
<path d="M14.4481 7.77693C13.3574 7.77693 12.7169 8.61693 12.7169 10.0777V11.0516C12.7169 12.5059 13.3469 13.3183 14.4481 13.3183C15.3537 13.3183 15.9417 12.7474 16.0047 11.9402H17.5102V12.0898C17.4353 13.5952 16.1609 14.6334 14.4363 14.6334C12.3192 14.6334 11.1314 13.2842 11.1314 11.0516V10.0712C11.1314 7.83993 12.331 6.46181 14.4363 6.46181C16.1662 6.46181 17.4419 7.52756 17.5102 9.08549V9.22987H16.0047C15.9417 8.3925 15.3419 7.77562 14.4481 7.77562V7.77693Z" fill="#F9F9F9"/>
<path fill-rule="evenodd" clip-rule="evenodd" d="M0.768845 0.768845C0.276562 1.26113 0 1.92881 0 2.625V18.375C0 19.0712 0.276562 19.7389 0.768845 20.2312C1.26113 20.7234 1.92881 21 2.625 21H18.375C19.0712 21 19.7389 20.7234 20.2312 20.2312C20.7234 19.7389 21 19.0712 21 18.375V2.625C21 1.92881 20.7234 1.26113 20.2312 0.768845C19.7389 0.276562 19.0712 0 18.375 0H2.625C1.92881 0 1.26113 0.276562 0.768845 0.768845ZM19.3031 1.69692C19.5492 1.94306 19.6875 2.2769 19.6875 2.625V18.375C19.6875 18.7231 19.5492 19.0569 19.3031 19.3031C19.0569 19.5492 18.7231 19.6875 18.375 19.6875H2.625C2.2769 19.6875 1.94306 19.5492 1.69692 19.3031C1.45078 19.0569 1.3125 18.7231 1.3125 18.375V2.625C1.3125 2.2769 1.45078 1.94306 1.69692 1.69692C1.94306 1.45078 2.2769 1.3125 2.625 1.3125H18.375C18.7231 1.3125 19.0569 1.45078 19.3031 1.69692Z" fill="#F9F9F9"/>
</svg>
