<svg width="18" height="15" viewBox="0 0 18 15" fill="none" xmlns="http://www.w3.org/2000/svg">
<path d="M8.98913 0.938114V14.0633C8.98877 14.2425 8.94235 14.4177 8.85537 14.5684C8.76838 14.7192 8.64444 14.839 8.4982 14.914C8.35195 14.9889 8.18949 15.0157 8.02999 14.9912C7.8705 14.9667 7.72063 14.892 7.59806 14.7759L3.90241 11.2508H1.96637C1.44486 11.2508 0.944704 11.0203 0.575937 10.6101C0.207171 10.1998 0 9.64343 0 9.06326L0 5.9382C0 4.73068 0.880935 3.75066 1.96637 3.75066H3.90128L7.59806 0.225602C7.72048 0.108914 7.8704 0.0337331 8.03006 0.00897655C8.18973 -0.01578 8.35242 0.0109264 8.49885 0.0859281C8.64528 0.16093 8.7693 0.28108 8.8562 0.432126C8.9431 0.583173 8.98923 0.758779 8.98913 0.938114ZM12.6747 4.02567L14.6073 6.17571L16.54 4.02567C16.6999 3.86015 16.9112 3.77002 17.1295 3.77422C17.3478 3.77842 17.5562 3.87661 17.7108 4.04817C17.865 4.22018 17.9533 4.45199 17.9571 4.69489C17.9609 4.93779 17.8798 5.17286 17.7311 5.35069L15.7984 7.50073L17.7311 9.65077C17.842 9.76536 17.9231 9.91112 17.9658 10.0727C18.0085 10.2342 18.0113 10.4056 17.9738 10.5688C17.9363 10.7319 17.8599 10.8808 17.7527 10.9998C17.6455 11.1187 17.5115 11.2033 17.3648 11.2445C17.2183 11.2863 17.0644 11.2834 16.9192 11.2361C16.7741 11.1888 16.6431 11.0989 16.54 10.9758L14.6073 8.82575L12.6747 10.9758C12.5717 11.0992 12.4406 11.1894 12.2954 11.2369C12.1502 11.2845 11.9961 11.2875 11.8495 11.2458C11.7028 11.2041 11.569 11.1191 11.4621 10.9999C11.3552 10.8807 11.2792 10.7316 11.242 10.5683C11.2045 10.4053 11.2071 10.2341 11.2496 10.0726C11.2921 9.91118 11.373 9.76545 11.4836 9.65077L13.4163 7.50073L11.4836 5.35069C11.3727 5.2361 11.2916 5.09034 11.2489 4.92878C11.2062 4.76722 11.2034 4.59583 11.2409 4.43267C11.2784 4.26951 11.3548 4.12063 11.462 4.0017C11.5691 3.88277 11.7032 3.79821 11.8499 3.75691C11.9964 3.71514 12.1503 3.71806 12.2955 3.76535C12.4406 3.81264 12.5716 3.90257 12.6747 4.02567ZM4.76199 5.40069C4.60909 5.54587 4.41467 5.62564 4.21366 5.6257H1.96637C1.89187 5.6257 1.82042 5.65862 1.76774 5.71723C1.71506 5.77583 1.68546 5.85532 1.68546 5.9382V9.06326C1.68546 9.23576 1.81131 9.37576 1.96637 9.37576H4.21366C4.41479 9.37576 4.60918 9.45577 4.76199 9.60077L7.30367 12.0258V2.97565L4.76199 5.40069Z" fill="#F9F9F9"/>
</svg>
