<svg width="18" height="16" viewBox="0 0 18 16" fill="none" xmlns="http://www.w3.org/2000/svg">
<path d="M8.9945 1.43811V14.5633C8.99414 14.7425 8.94773 14.9177 8.86074 15.0684C8.77375 15.2192 8.64982 15.339 8.50357 15.414C8.35732 15.4889 8.19486 15.5157 8.03537 15.4912C7.87587 15.4667 7.726 15.392 7.60344 15.2759L3.90778 11.7508H1.97174C1.45023 11.7508 0.950075 11.5203 0.581308 11.1101C0.212542 10.6998 0.00537109 10.1434 0.00537109 9.56326L0.00537109 6.4382C0.00537109 5.23068 0.886306 4.25066 1.97174 4.25066H3.90665L7.60344 0.725602C7.72585 0.608914 7.87577 0.533733 8.03544 0.508977C8.1951 0.48422 8.35779 0.510926 8.50422 0.585928C8.65065 0.66093 8.77467 0.78108 8.86157 0.932126C8.94847 1.08317 8.99461 1.25878 8.9945 1.43811ZM4.76736 5.90069C4.61446 6.04587 4.42004 6.12564 4.21903 6.1257H1.97174C1.89724 6.1257 1.82579 6.15862 1.77311 6.21723C1.72043 6.27583 1.69083 6.35532 1.69083 6.4382V9.56326C1.69083 9.73576 1.81668 9.87576 1.97174 9.87576H4.21903C4.42016 9.87576 4.61455 9.95577 4.76736 10.1008L7.30904 12.5258V3.47565L4.76736 5.90069Z" fill="#EAEAEB"/>
<path d="M11.9946 4.5C13.3276 6.278 13.3276 9.722 11.9946 11.5M13.9946 1C17.9826 4.808 18.0066 11.217 13.9946 15" stroke="#EAEAEB" stroke-width="1.75" stroke-linecap="round" stroke-linejoin="round"/>
</svg>
