<svg width="18" height="19" viewBox="0 0 18 19" fill="none" xmlns="http://www.w3.org/2000/svg">
<g clip-path="url(#clip0_448_353)">
<path d="M16.344 14.5277C16.0718 15.1566 15.7495 15.7355 15.3762 16.2677C14.8673 16.9932 14.4507 17.4954 14.1296 17.7743C13.6318 18.232 13.0985 18.4665 12.5274 18.4798C12.1174 18.4798 11.623 18.3632 11.0475 18.1265C10.47 17.8909 9.9394 17.7743 9.45419 17.7743C8.94532 17.7743 8.39956 17.8909 7.8158 18.1265C7.23115 18.3632 6.76016 18.4865 6.40006 18.4987C5.85242 18.522 5.30654 18.2809 4.76167 17.7743C4.41391 17.471 3.97892 16.951 3.45783 16.2143C2.89873 15.4277 2.43908 14.5155 2.07898 13.4755C1.69333 12.3522 1.5 11.2645 1.5 10.2114C1.5 9.0051 1.76066 7.96469 2.28275 7.09283C2.69307 6.39251 3.23894 5.84009 3.92214 5.43454C4.60534 5.029 5.34354 4.82234 6.13852 4.80912C6.5735 4.80912 7.14393 4.94367 7.8528 5.20811C8.55966 5.47343 9.01354 5.60798 9.21253 5.60798C9.3613 5.60798 9.86551 5.45065 10.7203 5.137C11.5286 4.84612 12.2108 4.72568 12.7696 4.77312C14.284 4.89534 15.4218 5.49232 16.1784 6.56784C14.824 7.38848 14.154 8.53789 14.1674 10.0124C14.1796 11.1609 14.5962 12.1167 15.4151 12.8755C15.7862 13.2278 16.2006 13.5 16.6617 13.6933C16.5617 13.9833 16.4562 14.2611 16.344 14.5277ZM12.8707 0.860347C12.8707 1.76055 12.5419 2.60107 11.8863 3.37905C11.0952 4.30391 10.1384 4.83834 9.10076 4.75401C9.08753 4.64601 9.07987 4.53235 9.07987 4.41291C9.07987 3.54871 9.45608 2.62385 10.1242 1.86765C10.4577 1.48477 10.8819 1.16642 11.3963 0.912456C11.9097 0.662285 12.3952 0.523936 12.8519 0.500244C12.8652 0.620588 12.8707 0.740939 12.8707 0.860335V0.860347Z" fill="#191C1D"/>
</g>
<defs>
<clipPath id="clip0_448_353">
<rect width="18" height="18" fill="#191C1D" transform="translate(0 0.5)"/>
</clipPath>
</defs>
</svg>
