<svg width="22" height="22" viewBox="0 0 22 22" fill="none" xmlns="http://www.w3.org/2000/svg">
<path d="M2.9375 20.5C2.3875 20.5 1.9165 20.304 1.5245 19.912C1.1325 19.52 0.936835 19.0493 0.937502 18.5V4.5C0.937502 3.95 1.1335 3.479 1.5255 3.087C1.9175 2.695 2.38817 2.49933 2.9375 2.5H3.9375V0.5H5.9375V2.5H13.9375V0.5H15.9375V2.5H16.9375C17.4875 2.5 17.9585 2.696 18.3505 3.088C18.7425 3.48 18.9382 3.95067 18.9375 4.5V10.5H16.9375V8.5H2.9375V18.5H9.9375V20.5H2.9375ZM20.0625 15.5L17.9375 13.375L18.6625 12.65C18.8458 12.4667 19.0792 12.375 19.3625 12.375C19.6458 12.375 19.8792 12.4667 20.0625 12.65L20.7875 13.375C20.9708 13.5583 21.0625 13.7917 21.0625 14.075C21.0625 14.3583 20.9708 14.5917 20.7875 14.775L20.0625 15.5ZM11.9375 21.5V19.375L17.2375 14.075L19.3625 16.2L14.0625 21.5H11.9375Z" fill="white" fill-opacity="0.5"/>
</svg>
