<svg width="18" height="19" viewBox="0 0 18 19" fill="none" xmlns="http://www.w3.org/2000/svg">
<g clip-path="url(#clip0_448_325)">
<path fill-rule="evenodd" clip-rule="evenodd" d="M13.0798 6.5016C12.228 5.68918 11.0912 5.24659 9.91503 5.26478C7.76273 5.26478 5.9348 6.71682 5.28303 8.67207V8.67211C4.93745 9.69673 4.93745 10.8062 5.28303 11.8308H5.28606C5.94084 13.7831 7.76576 15.2351 9.91806 15.2351C11.0291 15.2351 11.9829 14.9509 12.7221 14.449V14.447C13.5922 13.871 14.1863 12.9646 14.3712 11.94H9.91504V8.76307H17.6967C17.7937 9.31478 17.8392 9.87863 17.8392 10.4394C17.8392 12.9487 16.9424 15.0702 15.3821 16.5071L15.3837 16.5083C14.0165 17.7694 12.1401 18.5 9.91503 18.5C6.7957 18.5 3.94314 16.7417 2.54263 13.9559V13.9559C1.37251 11.6247 1.37251 8.87824 2.54263 6.54709H2.54265L2.54263 6.54707C3.94314 3.75817 6.7957 1.99995 9.91503 1.99995C11.9643 1.97569 13.9438 2.74567 15.4352 4.14619L13.0798 6.5016Z" fill="#191C1D"/>
</g>
<defs>
<clipPath id="clip0_448_325">
<rect width="16.5" height="16.5" fill="white" transform="translate(1.5 2)"/>
</clipPath>
</defs>
</svg>
