<svg width="18" height="24" viewBox="0 0 18 24" fill="none" xmlns="http://www.w3.org/2000/svg">
<path d="M15.75 2.10405e-06C16.3687 2.04996e-06 16.8986 0.213819 17.3396 0.641456C17.7806 1.06909 18.0007 1.58255 18 2.18182L18 14.1818C18 14.7818 17.7795 15.2956 17.3385 15.7233C16.8975 16.1509 16.368 16.3644 15.75 16.3636L12.375 16.3636L12.375 14.1818L15.75 14.1818L15.75 2.18182L2.25 2.18182L2.25 14.1818L5.625 14.1818L5.625 16.3636L2.25 16.3636C1.63125 16.3636 1.10138 16.1498 0.660376 15.7222C0.219376 15.2945 -0.000749137 14.7811 8.10598e-07 14.1818L-2.38475e-07 2.18182C-2.90929e-07 1.58182 0.220499 1.068 0.661499 0.640367C1.1025 0.212731 1.632 -0.000723934 2.25 3.28426e-06L15.75 2.10405e-06ZM10.125 7.63637L10.125 19.8273L11.925 18.0818L13.5 19.6364L9 24L4.5 19.6364L6.075 18.0818L7.875 19.8273L7.875 7.63637L10.125 7.63637Z" fill="white"/>
</svg>