<svg width="32" height="32" viewBox="0 0 32 32" fill="#FFFFFF" xmlns="http://www.w3.org/2000/svg">
<path d="M6.48862 13.3527H1.2835C0.797264 13.3527 0.416016 13.7339 0.416016 14.2201V28.0989C0.416016 28.5851 0.797264 28.9664 1.2835 28.9664H6.48862C6.97486 28.9664 7.35611 28.5851 7.35611 28.0989L7.35486 14.2201C7.35611 13.7339 6.97486 13.3527 6.48862 13.3527Z" />
<path d="M31.5836 14.9961C31.5836 13.5824 30.6136 12.1524 28.7598 12.1524H20.356C21.556 10.0049 21.9098 6.98504 21.0748 4.7748C20.4622 3.14981 19.2898 2.20104 17.7749 2.10479L17.7499 2.10229C16.7637 2.04229 15.9099 2.78104 15.8274 3.76603C15.6112 5.95854 14.6512 9.83483 13.2749 11.2112C12.1162 12.3699 11.1236 12.8561 9.48003 13.6599C9.24253 13.7761 8.98253 13.9036 8.70752 14.0399C8.71252 14.0999 8.71502 14.1586 8.71502 14.2199V27.9575C8.91377 28.025 9.11003 28.0925 9.30251 28.1587C12.0163 29.0937 14.3623 29.9012 17.9476 29.9012H24.7412C26.595 29.9012 27.565 28.47 27.565 27.0575C27.565 26.6375 27.48 26.2175 27.3112 25.8325C27.9287 25.7213 28.4687 25.425 28.87 24.97C29.325 24.4537 29.575 23.7675 29.575 23.0375C29.575 22.62 29.49 22.1987 29.3225 21.815C30.8112 21.5575 31.5862 20.28 31.5862 19.0175C31.5862 18.285 31.325 17.5475 30.8162 17.0075C31.3225 16.4663 31.5836 15.7287 31.5836 14.9961Z" />
</svg>
