<svg width="17" height="20" viewBox="0 0 17 20" fill="none" xmlns="http://www.w3.org/2000/svg">
<path fill-rule="evenodd" clip-rule="evenodd" d="M7.87146 0.266267C8.21859 -0.0887555 8.78141 -0.0887555 9.12854 0.266267L12.6841 3.90263C13.0312 4.25765 13.0312 4.83326 12.6841 5.18828C12.337 5.5433 11.7741 5.5433 11.427 5.18828L9.38889 3.10383V12.7273C9.38889 13.2294 8.99092 13.6364 8.5 13.6364C8.00908 13.6364 7.61111 13.2294 7.61111 12.7273V3.10383L5.57298 5.18828C5.22585 5.5433 4.66304 5.5433 4.31591 5.18828C3.96877 4.83326 3.96877 4.25765 4.31591 3.90263L7.87146 0.266267ZM1.38889 9.09091C1.87981 9.09091 2.27778 9.49792 2.27778 10V17.2727C2.27778 17.5138 2.37143 17.7451 2.53813 17.9156C2.70483 18.086 2.93092 18.1818 3.16667 18.1818H13.8333C14.0691 18.1818 14.2952 18.086 14.4619 17.9156C14.6286 17.7451 14.7222 17.5138 14.7222 17.2727V10C14.7222 9.49792 15.1202 9.09091 15.6111 9.09091C16.102 9.09091 16.5 9.49792 16.5 10V17.2727C16.5 17.996 16.219 18.6897 15.719 19.2012C15.2189 19.7127 14.5406 20 13.8333 20H3.16667C2.45942 20 1.78115 19.7127 1.28105 19.2012C0.780952 18.6897 0.5 17.996 0.5 17.2727V10C0.5 9.49792 0.897969 9.09091 1.38889 9.09091Z" fill="#EAEAEB"/>
</svg>
