<svg width="33" height="32" viewBox="0 0 33 32" fill="none" xmlns="http://www.w3.org/2000/svg">
<path fill-rule="evenodd" clip-rule="evenodd" d="M5.625 8C5.625 6.41218 6.91218 5.125 8.5 5.125H24.5C26.0878 5.125 27.375 6.41218 27.375 8V24C27.375 25.5878 26.0878 26.875 24.5 26.875H8.5C6.91218 26.875 5.625 25.5878 5.625 24V8ZM8.5 6.875C7.87868 6.875 7.375 7.37868 7.375 8V24C7.375 24.6213 7.87868 25.125 8.5 25.125H24.5C25.1213 25.125 25.625 24.6213 25.625 24V8C25.625 7.37868 25.1213 6.875 24.5 6.875H8.5Z" fill="#EAEAEB"/>
<path d="M13.3167 13.3151C12.2273 13.3151 11.5868 14.1551 11.5868 15.6159V16.5898C11.5868 18.0441 12.2155 18.8565 13.3167 18.8565C14.2223 18.8565 14.8103 18.2856 14.8746 17.4784H16.3801V17.628C16.3039 19.1334 15.0295 20.1716 13.3049 20.1716C11.1891 20.1716 10 18.8224 10 16.5898V15.6094C10 13.3781 11.1996 12 13.3049 12C15.0361 12 16.3105 13.0658 16.3801 14.6237V14.7681H14.8746C14.8103 13.9307 14.2105 13.3138 13.3167 13.3138V13.3151Z" fill="#EAEAEB"/>
<path d="M20.4094 13.3151C19.3187 13.3151 18.6782 14.1551 18.6782 15.6159V16.5898C18.6782 18.0441 19.3083 18.8565 20.4094 18.8565C21.3151 18.8565 21.9031 18.2856 21.9661 17.4784H23.4715V17.628C23.3967 19.1334 22.1223 20.1716 20.3976 20.1716C18.2806 20.1716 17.0928 18.8224 17.0928 16.5898V15.6094C17.0928 13.3781 18.2924 12 20.3976 12C22.1275 12 23.4032 13.0658 23.4715 14.6237V14.7681H21.9661C21.9031 13.9307 21.3032 13.3138 20.4094 13.3138V13.3151Z" fill="#EAEAEB"/>
</svg>
