<svg width="33" height="32" viewBox="0 0 33 32" fill="none" xmlns="http://www.w3.org/2000/svg">
<path d="M16.4891 9.43811V22.5633C16.4888 22.7425 16.4424 22.9177 16.3554 23.0684C16.2684 23.2192 16.1444 23.339 15.9982 23.414C15.8519 23.4889 15.6895 23.5157 15.53 23.4912C15.3705 23.4667 15.2206 23.392 15.0981 23.2759L11.4024 19.7508H9.46637C8.94486 19.7508 8.4447 19.5203 8.07594 19.1101C7.70717 18.6998 7.5 18.1434 7.5 17.5633V14.4382C7.5 13.2307 8.38093 12.2507 9.46637 12.2507H11.4013L15.0981 8.7256C15.2205 8.60891 15.3704 8.53373 15.5301 8.50898C15.6897 8.48422 15.8524 8.51093 15.9988 8.58593C16.1453 8.66093 16.2693 8.78108 16.3562 8.93213C16.4431 9.08317 16.4892 9.25878 16.4891 9.43811ZM20.1747 12.5257L22.1073 14.6757L24.04 12.5257C24.1999 12.3602 24.4112 12.27 24.6295 12.2742C24.8478 12.2784 25.0562 12.3766 25.2108 12.5482C25.365 12.7202 25.4533 12.952 25.4571 13.1949C25.4609 13.4378 25.3798 13.6729 25.2311 13.8507L23.2984 16.0007L25.2311 18.1508C25.342 18.2654 25.4231 18.4111 25.4658 18.5727C25.5085 18.7342 25.5113 18.9056 25.4738 19.0688C25.4363 19.2319 25.3599 19.3808 25.2527 19.4998C25.1455 19.6187 25.0115 19.7033 24.8648 19.7445C24.7183 19.7863 24.5644 19.7834 24.4192 19.7361C24.2741 19.6888 24.1431 19.5989 24.04 19.4758L22.1073 17.3258L20.1747 19.4758C20.0717 19.5992 19.9406 19.6894 19.7954 19.7369C19.6502 19.7845 19.4961 19.7875 19.3495 19.7458C19.2028 19.7041 19.069 19.6191 18.9621 19.4999C18.8552 19.3807 18.7792 19.2316 18.742 19.0683C18.7045 18.9053 18.7071 18.7341 18.7496 18.5726C18.7921 18.4112 18.873 18.2654 18.9836 18.1508L20.9163 16.0007L18.9836 13.8507C18.8727 13.7361 18.7916 13.5903 18.7489 13.4288C18.7062 13.2672 18.7034 13.0958 18.7409 12.9327C18.7784 12.7695 18.8548 12.6206 18.962 12.5017C19.0691 12.3828 19.2032 12.2982 19.3499 12.2569C19.4964 12.2151 19.6503 12.2181 19.7955 12.2654C19.9406 12.3126 20.0716 12.4026 20.1747 12.5257ZM12.262 13.9007C12.1091 14.0459 11.9147 14.1256 11.7137 14.1257H9.46637C9.39187 14.1257 9.32042 14.1586 9.26774 14.2172C9.21506 14.2758 9.18546 14.3553 9.18546 14.4382V17.5633C9.18546 17.7358 9.31131 17.8758 9.46637 17.8758H11.7137C11.9148 17.8758 12.1092 17.9558 12.262 18.1008L14.8037 20.5258V11.4757L12.262 13.9007Z" fill="#EAEAEB"/>
</svg>
