<svg width="33" height="32" viewBox="0 0 33 32" fill="none" xmlns="http://www.w3.org/2000/svg">
<path d="M16.9945 9.43811V22.5633C16.9941 22.7425 16.9477 22.9177 16.8607 23.0684C16.7737 23.2192 16.6498 23.339 16.5036 23.414C16.3573 23.4889 16.1949 23.5157 16.0354 23.4912C15.8759 23.4667 15.726 23.392 15.6034 23.2759L11.9078 19.7508H9.97174C9.45023 19.7508 8.95007 19.5203 8.58131 19.1101C8.21254 18.6998 8.00537 18.1434 8.00537 17.5633V14.4382C8.00537 13.2307 8.88631 12.2507 9.97174 12.2507H11.9067L15.6034 8.7256C15.7258 8.60891 15.8758 8.53373 16.0354 8.50898C16.1951 8.48422 16.3578 8.51093 16.5042 8.58593C16.6506 8.66093 16.7747 8.78108 16.8616 8.93213C16.9485 9.08317 16.9946 9.25878 16.9945 9.43811ZM12.7674 13.9007C12.6145 14.0459 12.42 14.1256 12.219 14.1257H9.97174C9.89724 14.1257 9.82579 14.1586 9.77311 14.2172C9.72043 14.2758 9.69083 14.3553 9.69083 14.4382V17.5633C9.69083 17.7358 9.81668 17.8758 9.97174 17.8758H12.219C12.4202 17.8758 12.6145 17.9558 12.7674 18.1008L15.309 20.5258V11.4757L12.7674 13.9007Z" fill="#EAEAEB"/>
<path d="M19.9946 12.5C21.3276 14.278 21.3276 17.722 19.9946 19.5M21.9946 9C25.9826 12.808 26.0066 19.217 21.9946 23" stroke="#EAEAEB" stroke-width="1.75" stroke-linecap="round" stroke-linejoin="round"/>
</svg>
