<svg width="42" height="42" viewBox="0 0 42 42" fill="none" xmlns="http://www.w3.org/2000/svg">
<rect width="42" height="42" rx="21" fill="white" fill-opacity="0.3"/>
<path d="M22.2584 10C17.5504 10 13.754 13.6056 13.5168 18.14L11.1191 21.2322C10.8194 21.6111 11.1191 22.2222 11.6436 22.2222H13.5168V25.8889C13.5168 27.2456 14.6282 28.3333 16.0144 28.3333H17.2632V32H26.0048V26.2678C28.9645 24.8989 31 21.9778 31 18.5556C31 13.8378 27.1037 10 22.2584 10ZM27.3285 18.03L24.8809 18.6656L26.6791 20.4378C26.8889 20.6439 27.0066 20.923 27.0066 21.2139C27.0066 21.5048 26.8889 21.7839 26.6791 21.99C26.4685 22.1952 26.1834 22.3105 25.8862 22.3105C25.5889 22.3105 25.3038 22.1952 25.0932 21.99L23.2699 20.23L22.633 22.6256C22.4832 23.2244 21.8588 23.5667 21.2718 23.4078C21.1285 23.372 20.9938 23.3087 20.8757 23.2214C20.7577 23.1342 20.6585 23.0248 20.5841 22.8996C20.5097 22.7744 20.4615 22.636 20.4424 22.4924C20.4232 22.3489 20.4335 22.203 20.4726 22.0633L21.1345 19.6556L18.6743 20.3033C18.5316 20.3425 18.3823 20.3531 18.2353 20.3348C18.0883 20.3164 17.9466 20.2694 17.8185 20.1964C17.6904 20.1235 17.5786 20.0262 17.4896 19.9102C17.4007 19.7942 17.3364 19.6619 17.3006 19.5211C17.1383 18.9467 17.488 18.3356 18.0999 18.1889L20.5475 17.5656L18.7492 15.7811C18.5614 15.5711 18.4621 15.299 18.4715 15.0201C18.481 14.7411 18.5984 14.4761 18.8001 14.2787C19.0018 14.0813 19.2726 13.9663 19.5576 13.9571C19.8427 13.9479 20.1206 14.045 20.3352 14.2289L22.146 15.9889L22.7954 13.5933C22.8304 13.456 22.8928 13.3267 22.9789 13.213C23.0651 13.0993 23.1734 13.0033 23.2975 12.9307C23.4217 12.858 23.5592 12.81 23.7024 12.7895C23.8455 12.769 23.9914 12.7763 24.1316 12.8111C24.756 12.97 25.1057 13.5689 24.9558 14.1678L24.2939 16.5633L26.7416 15.9156C26.8867 15.8789 27.0379 15.8707 27.1862 15.8915C27.3346 15.9123 27.4774 15.9616 27.6062 16.0365C27.7351 16.1115 27.8475 16.2107 27.937 16.3284C28.0265 16.4461 28.0913 16.5799 28.1278 16.7222C28.1633 16.8595 28.1708 17.0022 28.1498 17.1423C28.1289 17.2824 28.0799 17.417 28.0056 17.5385C27.9313 17.66 27.8333 17.766 27.7171 17.8503C27.6009 17.9347 27.4689 17.9957 27.3285 18.03Z" fill="white" fill-opacity="0.5"/>
</svg>
