<svg width="18" height="24" viewBox="0 0 18 24" fill="none" xmlns="http://www.w3.org/2000/svg">
<path d="M9.98561 9.36829C10.1506 8.87329 10.8495 8.87329 11.0145 9.36829L11.9819 12.2738C12.1948 12.9125 12.5536 13.4928 13.0297 13.9688C13.5059 14.4447 14.0864 14.8032 14.7251 15.0158L17.6288 15.9833C18.1237 16.1483 18.1237 16.8473 17.6288 17.0123L14.7236 17.9798C14.085 18.1928 13.5047 18.5516 13.0288 19.0278C12.5529 19.504 12.1945 20.0845 11.9819 20.7233L11.0145 23.6274C10.9789 23.7357 10.91 23.8301 10.8177 23.8971C10.7253 23.964 10.6141 24 10.5001 24C10.386 24 10.2748 23.964 10.1825 23.8971C10.0901 23.8301 10.0212 23.7357 9.98561 23.6274L9.01821 20.7218C8.80543 20.0833 8.4469 19.5031 7.97102 19.0271C7.49513 18.5512 6.91498 18.1926 6.27651 17.9798L3.37132 17.0123C3.26294 16.9768 3.16856 16.9079 3.10165 16.8155C3.03474 16.7231 2.99871 16.6119 2.99871 16.4978C2.99871 16.3837 3.03474 16.2726 3.10165 16.1802C3.16856 16.0878 3.26294 16.0189 3.37132 15.9833L6.27651 15.0158C6.91498 14.803 7.49513 14.4444 7.97102 13.9685C8.4469 13.4926 8.80543 12.9123 9.01821 12.2738L9.98561 9.36829ZM4.19173 1.71976C4.21324 1.6548 4.25467 1.59827 4.31013 1.55821C4.3656 1.51814 4.43228 1.49658 4.5007 1.49658C4.56912 1.49658 4.6358 1.51814 4.69126 1.55821C4.74673 1.59827 4.78816 1.6548 4.80966 1.71976L5.3901 3.46277C5.64957 4.23977 6.25851 4.84877 7.03543 5.10828L8.77824 5.68878C8.84319 5.71029 8.89971 5.75172 8.93977 5.80719C8.97983 5.86267 9.0014 5.92935 9.0014 5.99778C9.0014 6.06621 8.97983 6.13289 8.93977 6.18836C8.89971 6.24384 8.84319 6.28527 8.77824 6.30678L7.03543 6.88728C6.65225 7.01496 6.30408 7.23013 6.0185 7.51575C5.73291 7.80136 5.51776 8.14958 5.3901 8.53279L4.80966 10.2758C4.78816 10.3408 4.74673 10.3973 4.69126 10.4373C4.6358 10.4774 4.56912 10.499 4.5007 10.499C4.43228 10.499 4.3656 10.4774 4.31013 10.4373C4.25467 10.3973 4.21324 10.3408 4.19173 10.2758L3.61129 8.53279C3.48363 8.14958 3.26848 7.80136 2.9829 7.51575C2.69731 7.23013 2.34914 7.01496 1.96597 6.88728L0.223157 6.30678C0.158205 6.28527 0.101684 6.24384 0.061623 6.18836C0.0215622 6.13289 0 6.06621 0 5.99778C0 5.92935 0.0215622 5.86267 0.061623 5.80719C0.101684 5.75172 0.158205 5.71029 0.223157 5.68878L1.96597 5.10828C2.34914 4.9806 2.69731 4.76543 2.9829 4.47981C3.26848 4.19419 3.48363 3.84598 3.61129 3.46277L4.19173 1.71976ZM14.7941 0.146255C14.8089 0.103544 14.8366 0.0665081 14.8735 0.0402965C14.9103 0.0140849 14.9544 0 14.9996 0C15.0448 0 15.0888 0.0140849 15.1257 0.0402965C15.1625 0.0665081 15.1902 0.103544 15.205 0.146255L15.592 1.30726C15.7645 1.82626 16.1709 2.23276 16.6899 2.40526L17.8508 2.79227C17.8935 2.80707 17.9305 2.83482 17.9567 2.87165C17.9829 2.90848 17.997 2.95256 17.997 2.99777C17.997 3.04297 17.9829 3.08705 17.9567 3.12388C17.9305 3.16071 17.8935 3.18846 17.8508 3.20327L16.6899 3.59027C16.4341 3.67535 16.2018 3.81889 16.0112 4.00949C15.8206 4.2001 15.6771 4.43251 15.592 4.68827L15.205 5.84928C15.1902 5.89199 15.1625 5.92903 15.1257 5.95524C15.0888 5.98145 15.0448 5.99553 14.9996 5.99553C14.9544 5.99553 14.9103 5.98145 14.8735 5.95524C14.8366 5.92903 14.8089 5.89199 14.7941 5.84928L14.4071 4.68827C14.3221 4.43251 14.1785 4.2001 13.988 4.00949C13.7974 3.81889 13.565 3.67535 13.3093 3.59027L12.1499 3.20327C12.1072 3.18846 12.0701 3.16071 12.0439 3.12388C12.0177 3.08705 12.0036 3.04297 12.0036 2.99777C12.0036 2.95256 12.0177 2.90848 12.0439 2.87165C12.0701 2.83482 12.1072 2.80707 12.1499 2.79227L13.3108 2.40526C13.8297 2.23276 14.2362 1.82626 14.4086 1.30726L14.7941 0.147755V0.146255Z" fill="white" fill-opacity="0.5"/>
</svg>
