<svg width="20" height="20" viewBox="0 0 20 20" fill="none" xmlns="http://www.w3.org/2000/svg">
<path d="M10 17C6.1339 17 3 13.8661 3 10C3 6.1339 6.1339 3 10 3C13.8661 3 17 6.1339 17 10C17 13.8661 13.8661 17 10 17ZM10 15.6C11.4852 15.6 12.9096 15.01 13.9598 13.9598C15.01 12.9096 15.6 11.4852 15.6 10C15.6 8.51479 15.01 7.09041 13.9598 6.0402C12.9096 4.99 11.4852 4.4 10 4.4C8.51479 4.4 7.09041 4.99 6.0402 6.0402C4.99 7.09041 4.4 8.51479 4.4 10C4.4 11.4852 4.99 12.9096 6.0402 13.9598C7.09041 15.01 8.51479 15.6 10 15.6ZM10.7 10H13.5V11.4H9.3V6.5H10.7V10Z" fill="#EAEAEB"/>
</svg>
