<svg width="19" height="21" viewBox="0 0 19 21" fill="none" xmlns="http://www.w3.org/2000/svg">
<path d="M14.1954 7.63035H13.4454V5.94521C13.4454 3.61972 11.7654 1.73236 9.69543 1.73236C7.62543 1.73236 5.94543 3.61972 5.94543 5.94521V7.63035H5.19543C4.37043 7.63035 3.69543 8.38866 3.69543 9.31549V17.7412C3.69543 18.668 4.37043 19.4263 5.19543 19.4263H14.1954C15.0204 19.4263 15.6954 18.668 15.6954 17.7412V9.31549C15.6954 8.38866 15.0204 7.63035 14.1954 7.63035ZM7.44543 5.94521C7.44543 4.54654 8.45043 3.4175 9.69543 3.4175C10.9404 3.4175 11.9454 4.54654 11.9454 5.94521V7.63035H7.44543V5.94521ZM14.1954 17.7412H5.19543V9.31549H14.1954V17.7412ZM9.69543 15.2135C10.5204 15.2135 11.1954 14.4552 11.1954 13.5283C11.1954 12.6015 10.5204 11.8432 9.69543 11.8432C8.87043 11.8432 8.19543 12.6015 8.19543 13.5283C8.19543 14.4552 8.87043 15.2135 9.69543 15.2135Z" fill="white"/>
</svg>
